<svg width="34" height="59" viewBox="0 0 34 59" fill="none" xmlns="http://www.w3.org/2000/svg">
<g clip-path="url(#clip0_757_8)">
<path d="M14.9271 51.027V7.66203H19.9794V45.127H25.2143V51.027H14.9271Z" fill="#1400ff"/>
<path d="M33.8394 29.6101C34.0535 29.4025 34.0535 29.066 33.8394 28.8584L30.3494 25.4757C30.1353 25.2682 29.7881 25.2682 29.5739 25.4757C29.3598 25.6833 29.3598 26.0199 29.5739 26.2274L32.6761 29.2342L29.5739 32.2411C29.3598 32.4486 29.3598 32.7851 29.5739 32.9927C29.7881 33.2003 30.1353 33.2003 30.3494 32.9927L33.8394 29.6101ZM0 29.7658H33.4516V28.7027H0V29.7658Z" fill="#1400ff"/>
<path d="M6.42002 28.8584C6.63417 29.066 6.63417 29.4025 6.42002 29.6101L2.93011 32.9927C2.71595 33.2003 2.36874 33.2003 2.15457 32.9927C1.94042 32.7851 1.94042 32.4486 2.15457 32.241L5.25672 29.2342L2.15457 26.2274C1.94042 26.0199 1.94042 25.6833 2.15457 25.4757C2.36874 25.2682 2.71595 25.2682 2.93011 25.4757L6.42002 28.8584ZM0 28.7027H6.03226V29.7658H2.52324e-09L0 28.7027Z" fill="#1400ff"/>
<path d="M9.71031 28.8584C9.92445 29.066 9.92445 29.4025 9.71031 29.6101L6.22037 32.9927C6.00622 33.2003 5.65904 33.2003 5.44486 32.9927C5.2307 32.7851 5.2307 32.4486 5.44486 32.241L8.54701 29.2342L5.44486 26.2274C5.2307 26.0199 5.2307 25.6833 5.44486 25.4757C5.65904 25.2682 6.00622 25.2682 6.22037 25.4757L9.71031 28.8584ZM3.29028 28.7027H9.32254V29.7658H3.29028V28.7027Z" fill="#1400ff"/>
</g>
<defs>
<clipPath id="clip0_757_8">
<rect width="34" height="59" fill="#1400ff"/>
</clipPath>
</defs>
</svg>
